<svg width="512" height="512" viewBox="0 0 512 512" fill="none" xmlns="http://www.w3.org/2000/svg">
  <rect width="512" height="512" rx="112" fill="#0b1326"/>
  <path d="M140 180C140 157.909 157.909 140 180 140H332C354.091 140 372 157.909 372 180V332C372 354.091 354.091 372 332 372H180C157.909 372 140 354.091 140 332V180Z" fill="#6366f1" fill-opacity="0.1"/>
  <path d="M140 210V332C140 354.091 157.909 372 180 372H332C354.091 372 372 354.091 372 332V210" stroke="#6366f1" stroke-width="24" stroke-linecap="round" stroke-linejoin="round"/>
  <path d="M140 240C140 217.909 157.909 200 180 200H332C354.091 200 372 217.909 372 240V240H140V240Z" fill="#6366f1"/>
  <path d="M210 200V160C210 148.954 218.954 140 230 140H282C293.046 140 302 148.954 302 160V200" stroke="#6366f1" stroke-width="24" stroke-linecap="round" stroke-linejoin="round"/>
  <circle cx="310" cy="286" r="12" fill="white"/>
  <path d="M240 286H280" stroke="white" stroke-width="16" stroke-linecap="round"/>
  <path d="M220 326H292" stroke="#6366f1" stroke-width="12" stroke-opacity="0.5" stroke-linecap="round"/>
</svg>
